<?xml version="1.0" encoding="UTF-8"?>
<svg id="HB_Wordmark_HB4_RGB" data-name="HB Wordmark HB4 RGB" xmlns="http://www.w3.org/2000/svg" version="1.1" viewBox="0 0 1872.2576 200">
  <defs>
    <style>
      .cls-1 {
        fill: #005fa5;
        stroke-width: 0px;
      }
    </style>
  </defs>
  <path class="cls-1" d="M1872.2576,103.6119v93.0541h-41.3894v-77.4992c0-19.4437-3.8911-33.6103-25.0027-33.6103-21.9339,0-26.6588,14.7221-26.6588,31.6659v79.4436h-41.3894V53.8903h37.4983v18.6109c8.616-12.4998,25.2806-21.9443,46.1142-21.9443,34.441,0,50.8277,19.9999,50.8277,53.055ZM1724.6502,134.9999h-101.6669c1.6677,24.4446,11.1174,34.4445,33.3293,34.4445,18.3438,0,24.7247-9.4441,26.1145-18.0555h40.2775c-5.8366,32.5-31.6616,48.611-69.7157,48.611-42.2231,0-72.7846-28.3333-72.7846-74.722,0-53.3324,35.8306-74.7211,74.4522-74.7211,57.7761,0,72.7732,41.944,69.9938,84.443ZM1682.427,110.5562c-2.5015-17.222-11.106-27.7774-28.8823-27.7774-17.7879,0-26.6704,10.2776-29.7277,27.7774h58.61ZM1587.1295,54.9994h-45.8249l-50.0053,56.6659V0h-41.3894v196.6648h41.3894v-39.1671l18.6101-19.9998,37.7762,59.1669h44.7246l-57.7761-85.2773,52.4954-56.3881ZM1382.3713,50.5569c-20.8336,0-37.5099,9.4444-46.1142,21.9443v-18.6109h-37.4983v142.7757h41.3894v-79.4436c0-16.9438,4.7133-31.6659,26.6588-31.6659,21.1116,0,25.0027,14.1666,25.0027,33.6103v77.4992h41.3894v-93.0541c0-33.0551-16.3867-53.055-50.8277-53.055ZM1280.357,177.4999c0,6.389.2779,14.4445,1.3896,19.166h-38.0541v-19.166c-6.9368,11.6664-29.438,22.5001-51.1056,22.5001-28.8938,0-47.7795-16.111-47.7795-40.2776,0-28.3333,16.9402-40.5556,50.0031-46.3884,26.3808-4.7222,44.1572-5.2777,44.1572-17.4998,0-9.9998-5.8251-16.6665-24.7132-16.6665-16.6646,0-25.0028,5.8333-25.5587,18.0553h-38.61c.2768-30.2773,28.06-46.6661,66.9479-46.6661,46.6586,0,63.3233,14.1666,63.3233,50.555v76.388ZM1238.9676,128.612c-4.4354,4.4435-14.4411,5.8332-29.1602,9.1661-12.2175,2.5003-22.2233,6.3891-22.2233,18.3335,0,10.2779,8.0601,16.6658,20.5557,16.6658,21.1116,0,30.8278-16.111,30.8278-34.4433v-9.722ZM1137.1849,123.6092c-.2779,48.0553-25.0004,76.3886-63.0545,76.3886-18.0555,0-36.1109-7.2217-46.1108-22.5001v19.1672h-37.4994V0h41.3882v66.3881c9.722-11.6665,26.6657-15.8331,42.222-15.8331,32.7768,0,62.7766,23.333,63.0545,73.0542ZM1094.4071,124.9989c-.2768-26.3889-10.5547-42.4999-31.1104-42.4999-19.9999,0-31.3883,11.6665-31.3883,44.7222,0,26.6657,9.444,42.2209,31.3883,42.2209,19.9998,0,30.8336-16.111,31.1104-44.4432ZM931.2062,112.497c-23.0548-5.5555-34.4433-7.4999-34.4433-18.0553,0-9.1666,6.9438-13.3332,19.7219-13.3332s20.5557,4.7221,21.1104,17.4998h39.4438c-.5547-23.0553-9.9999-47.4995-63.8872-47.4995-29.4451,0-59.1669,11.9444-59.1669,43.055,0,29.1662,24.7225,37.2218,43.8885,42.4991,19.7219,5.2785,42.4999,6.1111,42.4999,18.8892,0,9.9999-7.2229,14.9993-22.5001,14.9993-17.2216,0-24.9992-6.1112-25.5551-19.9999h-39.7218c.5559,30.5557,16.1111,49.4438,63.6105,49.4438,40.2776,0,61.388-14.9993,61.388-44.9991,0-29.7219-23.3328-36.9436-46.3888-42.4993ZM798.6941,196.6648h41.3882V0h-41.3882v196.6648ZM785.8072,134.9999h-101.6657c1.6665,24.4446,11.1117,34.4445,33.3327,34.4445,18.3334,0,24.7224-9.4441,26.111-18.0555h40.2776c-5.8332,32.5-31.6662,48.611-69.7215,48.611-42.2221,0-72.7765-28.3333-72.7765-74.722,0-53.3324,35.833-74.7211,74.443-74.7211,57.7772,0,72.7777,41.944,69.9995,84.443ZM743.5851,110.5562c-2.5003-17.222-11.1105-27.7774-28.888-27.7774s-26.6668,10.2776-29.7218,27.7774h58.6099ZM587.0941,0h41.3882v196.6648h-37.4994v-19.1672c-10.2779,15.2784-28.0554,22.5001-46.1108,22.5001-38.3321,0-62.7765-28.3333-63.0545-76.3886.278-49.7212,30.2777-73.0542,63.0545-73.0542,15.5564,0,32.5001,4.1666,42.2221,15.8331V0ZM587.0941,127.2212c0-33.0557-11.3885-44.7222-31.3883-44.7222-20.5557,0-30.8336,16.111-31.1104,42.4999.2768,28.3322,11.1105,44.4432,31.1104,44.4432,21.9442,0,31.3883-15.5552,31.3883-42.2209ZM418.1585,50.5569c-20.8325,0-37.4994,9.4444-46.1108,21.9443v-18.6109h-37.4994v142.7757h41.3882v-79.4436c0-16.9438,4.7226-31.6659,26.6668-31.6659,21.1104,0,24.9992,14.1666,24.9992,33.6103v77.4992h41.3882v-93.0541c0-33.0551-16.3878-53.055-50.8323-53.055ZM315.8779,177.4999c0,6.389.2779,14.4445,1.3885,19.166h-38.0541v-19.166c-6.945,11.6664-29.445,22.5001-51.1114,22.5001-28.888,0-47.7773-16.111-47.7773-40.2776,0-28.3333,16.9449-40.5556,49.9996-46.3884,26.3889-4.7222,44.1664-5.2777,44.1664-17.4998,0-9.9998-5.8332-16.6665-24.7224-16.6665-16.6658,0-24.9993,5.8333-25.5551,18.0553h-38.61c.2779-30.2773,28.0554-46.6661,66.9434-46.6661,46.6656,0,63.3325,14.1666,63.3325,50.555v76.388ZM274.4896,128.612c-4.4447,4.4435-14.4445,5.8332-29.166,9.1661-12.2223,2.5003-22.2221,6.3891-22.2221,18.3335,0,10.2779,8.0555,16.6658,20.5545,16.6658,21.1116,0,30.8336-16.111,30.8336-34.4433v-9.722ZM121.943,79.4434H43.8884V0H0v196.6648h43.8884v-80.2773h78.0547v80.2773h43.8885V0h-43.8885v79.4434Z"/>
</svg>