<svg xmlns="http://www.w3.org/2000/svg" width="160" height="85" viewBox="0 0 160 85">
    <g fill="none" fill-rule="evenodd">
        <g>
            <g>
                <path fill="#612611" d="M.868 67.215h2.215V79.33h6.552v2.13H.868V67.215zm13.199 12.712c1.995 0 2.739-1.471 2.739-2.399v-1.245c-.64.284-1.458.462-1.944.55-1.597.297-2.576.54-2.576 1.751 0 .577.185 1.343 1.78 1.343zm5.103-.147c.085 0 .186-.013.3-.039l.385-.077v1.657l-.17.068c-.2.08-.489.172-.943.172-.965 0-1.575-.39-1.85-1.193-.82.846-1.906 1.29-3.17 1.29-2.235 0-3.623-1.164-3.623-3.035 0-2.56 2.056-3.088 4.54-3.474l.051-.008c1.454-.219 2.097-.35 2.097-1.146 0-1.285-1.224-1.477-1.954-1.477-1.472 0-2.151.595-2.202 1.93l-.01.259h-2.032l.008-.278c.068-2.268 1.645-3.623 4.217-3.623 3.248 0 3.93 1.86 3.93 3.42v4.723c0 .83.226.83.426.83zm6.394-9.012c2.256 0 3.604 1.293 3.604 3.457v7.24h-2.091V74.36c0-1.126-.7-1.746-1.973-1.746-1.443 0-2.451 1.018-2.451 2.475v6.376h-2.091V70.998h2.09v.903c.769-.752 1.745-1.133 2.912-1.133zm9.324 9.14c2.5 0 2.873-2.273 2.873-3.628 0-2.284-1.081-3.647-2.893-3.647-1.892 0-2.566 1.884-2.566 3.647 0 2.272.967 3.628 2.586 3.628zm2.777-7.95v-4.761h2.091v14.269h-2.091v-.814c-.765.748-1.68 1.102-2.835 1.102-2.83 0-4.657-2.157-4.657-5.493 0-3.286 1.856-5.493 4.619-5.493 1.117 0 2.131.426 2.873 1.19zm7.996 3.116c1.817.368 3.876.785 3.876 3.395 0 2.026-1.601 3.285-4.178 3.285-2.836 0-4.49-1.338-4.657-3.766l-.02-.288h2.117l.03.237c.166 1.363.958 1.97 2.568 1.97 1.309 0 2.03-.483 2.03-1.361 0-.84-.422-1.11-2.373-1.522-1.833-.378-3.912-.807-3.912-3.24 0-1.849 1.469-2.997 3.833-2.997 2.46 0 3.898 1.158 4.158 3.349l.036.302h-2.134l-.028-.239c-.137-1.167-.737-1.643-2.07-1.643-1.111 0-1.723.409-1.723 1.151 0 .8.634 1 2.447 1.367zm9.93-4.306c2.257 0 3.604 1.293 3.604 3.457v7.24h-2.091V74.36c0-1.126-.7-1.746-1.973-1.746-1.443 0-2.451 1.018-2.451 2.475v6.376h-2.092V67.196h2.092v4.705c.768-.752 1.744-1.133 2.911-1.133zm9.313 6.59l2.325-6.36h2.234l-4.427 11.104c-.867 2.214-1.767 2.647-3.029 2.647-.607 0-1.026-.037-1.5-.232l-.168-.068v-1.834h.415l.06.033c.217.118.528.178.925.178.526 0 .876-.165 1.225-1.04l.343-.876-4.072-9.912h2.275l2.403 6.358c.159.427.358.934.513 1.322.138-.389.32-.895.478-1.32zm9.868-4.725c-2.683 0-2.892 2.791-2.892 3.647 0 1.355.373 3.628 2.873 3.628 1.607 0 2.567-1.356 2.567-3.628 0-2.284-.952-3.647-2.548-3.647zm.154-1.865c2.748 0 4.523 2.156 4.523 5.493 0 3.388-1.755 5.493-4.58 5.493-1.218 0-2.134-.334-2.893-1.067v3.966h-2.091V70.998h2.091v.98c.79-.813 1.76-1.21 2.95-1.21zm10.232 9.12c2.147 0 2.911-1.883 2.911-3.646 0-1.773-.764-3.667-2.91-3.667-2.162 0-2.931 1.894-2.931 3.667 0 1.763.77 3.647 2.93 3.647zm0-9.14c2.968 0 5.04 2.26 5.04 5.494s-2.072 5.492-5.04 5.492c-2.932 0-5.06-2.31-5.06-5.492 0-3.183 2.128-5.493 5.06-5.493zm8.663-2.88v3.13h1.916v1.808H93.82v6.181c0 .488.183.652.727.652.276 0 .593-.072.739-.12l.04-.014h.371v1.833l-.213.045c-.441.093-.879.14-1.301.14-1.583 0-2.455-.778-2.455-2.19v-6.527h-1.437v-1.808h1.437v-3.13h2.092zm7.107 4.65c-1.964 0-2.566 1.665-2.75 2.647h5.354c-.168-1.71-1.085-2.647-2.604-2.647zm0-1.77c2.98 0 4.83 2.245 4.83 5.858v.27h-7.64c.168 1.506 1.004 3.013 2.906 3.013 1.333 0 2.167-.617 2.48-1.833l.051-.203h2.057l-.07.327c-.488 2.259-2.134 3.554-4.518 3.554-2.98 0-5.06-2.258-5.06-5.492 0-1.488.482-2.862 1.357-3.87.91-1.046 2.191-1.623 3.607-1.623zm14.726.25l-4.123 3.882 4.408 6.586h-2.471l-3.41-5.21-1.138 1.08v4.13h-2.09v-14.27h2.09v7.676l3.97-3.874h2.764zm5.32 4.073v4.3h4.04c.875 0 1.535-.208 1.96-.617.35-.367.53-.841.53-1.399 0-1.451-.949-2.284-2.604-2.284h-3.927zm3.6-1.999c1.522 0 2.394-.72 2.394-1.976 0-1.183-.789-1.862-2.164-1.862h-3.83v3.838h3.6zm2.913.81c1.453.575 2.3 1.797 2.3 3.377 0 1.098-.37 2.072-1.07 2.816-.831.896-2.12 1.39-3.625 1.39h-6.382V67.198h6.075c1.534 0 2.676.416 3.491 1.274.625.648.956 1.522.956 2.529 0 1.334-.6 2.319-1.745 2.882zm6.803 6.045c1.995 0 2.739-1.471 2.739-2.399v-1.245c-.641.285-1.458.462-1.944.55-1.597.297-2.576.54-2.576 1.751 0 .577.184 1.343 1.78 1.343zm5.402-.186l.03-.006h.356v1.586l-.17.068c-.2.08-.49.172-.943.172-.966 0-1.575-.39-1.85-1.193-.82.846-1.906 1.29-3.17 1.29-2.235 0-3.623-1.164-3.623-3.035 0-2.56 2.056-3.088 4.54-3.474l.05-.008c1.455-.219 2.097-.35 2.097-1.146 0-1.285-1.224-1.477-1.953-1.477-1.472 0-2.151.595-2.203 1.93l-.01.259h-2.031l.008-.278c.068-2.268 1.644-3.623 4.217-3.623 3.247 0 3.93 1.86 3.93 3.42v4.723c0 .83.226.83.426.83.085 0 .185-.012.3-.038zm6.095-8.973c2.256 0 3.603 1.293 3.603 3.457v7.24h-2.09V74.36c0-1.126-.701-1.746-1.973-1.746-1.444 0-2.452 1.018-2.452 2.475v6.376h-2.09V70.998h2.09v.903c.768-.752 1.745-1.133 2.912-1.133zm9.721 4.112l4.408 6.586h-2.47l-3.41-5.21-1.139 1.08v4.13h-2.09v-14.27h2.09v7.676l3.971-3.874h2.764l-4.124 3.882z" transform="translate(-390 -803) translate(390 803)"/>
                <path fill="#0B94B1" d="M112.045 38.844c-1.918-1.318-4.067-2.574-6.404-2.574-3.17 0-3.587 1.176-7.996 3.19-.7.292-2.154.769-4.103 1.119-.653.116-1.274.24-1.683.174-.328-.053-.493-.331-.54-.676-.093-.715.003-1.205.156-1.813.07-.28.168-.611.253-.971.19-.817-.255-1.138-.53-1.415-.05-.05-.001-.115.016-.13.055-.045.25-.264.64-.202.393.063.63.073.756.03.094-.033.194-.143.237-.215.195-.325.353-.747.406-.87.055-.123.035-.192.115-.205.187-.033.198-.096.19-.236-.007-.153-.138-.47-.083-.67.099-.358.172-.85.164-1.057l-.005-.159c-.039-.244-.075-.508-.264-.805-.13-.205-.655-.982-2.262-1.007-.947-.015-1.908 1.02-3.35 1.13-.72.055-2.305-.074-2.932-.148-.869-.104-1.168.052-1.295.32-.076.157-.01.319.813.405 1.237.13 1.447.52 2.213.84.57.239 1.445.281 2.113.537.432.165.61.354.608.6.025.25-.097.345-.237.484-.174.172-1.205.782-1.205.782-.642.418-.912.875-1.3 1.521-.438.73-.843 1.83-.98 2.159-.197.474-.538.65-.868.614-.234-.027-.482-.138-.599-.193-4.546-2.113-6.827-5.059-9.191-9.267-1.681-2.996-3.593-7.876-5.487-10.77-5.492-8.39-8.926-9.009-14.678-14.455-2.145-2.03-3.925-5.898-4.475-4.639-.424.967-.69 2.457-.848 4.118-.479 5.036.111 8.202 1.814 12.906 2.06 5.682.753 9.35 1.93 14.123l.234.77c.522 2.12 1.455 4.947 4.595 8.819 1.185 1.46 1.443 1.973 1.795 2.597.62 1.103.683 1.95.48 2.685-.26.93-1.24 1.606-2.726 2.201-2.113.847-3.828 1.444-6.494 2.008-2.814.596-4.349 1.874-4.341 1.878-.178.241 1.486.803 2.608.997 3.214.555 5.376.465 8.548 1.434 5.031 1.538 12.183 5.426 23.573 1.279 8.007-2.914 10.764-8.404 16.083-11.284 5.092-2.758 7.872-3.016 11.641-3.016 2.319 0 5.637 1.357 7.741-.808.332-.53-3.126-.955-4.846-2.135" transform="translate(-390 -803) translate(390 803)"/>
            </g>
        </g>
    </g>
</svg>
