<?xml version="1.0" encoding="utf-8"?>
<!-- Generator: Adobe Illustrator 19.2.1, SVG Export Plug-In . SVG Version: 6.00 Build 0)  -->
<svg version="1.1" id="LF__x5B_V_x5D__Länsförsäkringar_1_"
	 xmlns="http://www.w3.org/2000/svg" xmlns:xlink="http://www.w3.org/1999/xlink" x="0px" y="0px" viewBox="0 0 712.7 213.7"
	 style="enable-background:new 0 0 712.7 213.7;" xml:space="preserve">
<style type="text/css">
	.st0{fill:#005AA0;}
	.st1{fill:#E30613;}
</style>
<g>
	<g>
		<path class="st0" d="M378.2,154.5v-28.1h-14.3v1.2c4.9,1.3,5,1.5,5,4.6v22.3c0,3.1-0.1,3.3-5,4.6v1.2h19.3v-1.2
			C378.4,157.8,378.2,157.5,378.2,154.5z"/>
		<path class="st0" d="M387,126.4h-2.7c-3.1,0-3.4,0.2-3.4,3.4v2.7c0,3.1,0.2,3.4,3.4,3.4h2.7c3.1,0,3.4-0.2,3.4-3.4v-2.7
			C390.3,126.6,390.1,126.4,387,126.4z"/>
		<path class="st0" d="M501,154.5v-28.1h-14.3v1.2c4.9,1.3,5,1.5,5,4.6v22.3c0,2.3-0.1,3-2,3.7c-1,0.3-2.1,0.5-2.6,0.4
			c-1.7-0.3-2.4-0.7-3.5-2.2l-12.4-18c0,0,5.6-6.6,7.6-8.5c1.3-1.3,2.4-2.1,5.4-2.4v-1.2H472v1.2c2.7,0.1,3.9,0.3,3.9,1.1
			c0,0.3-0.4,0.9-1.1,1.5l-11.6,12.1l9.6,14.4c0.3,0.5,0.5,0.8,0.5,1.1c0,0.7-1.3,0.7-3.9,1.3v1.2h19.4l0,0H506v-1.2
			C501.2,157.8,501,157.5,501,154.5z"/>
		<path class="st0" d="M509.8,126.4h-2.7c-3.1,0-3.4,0.2-3.4,3.4v2.7c0,3.1,0.2,3.4,3.4,3.4h2.7c3.1,0,3.4-0.2,3.4-3.4v-2.7
			C513.1,126.6,512.9,126.4,509.8,126.4z"/>
		<path class="st0" d="M199,157h-3.9v-36.8c0-3.1,0.1-3.3,5-4.6v-1.2h-19.7v1.2c4.8,1.3,5,1.5,5,4.6v34.3c0,3.1-0.1,3.3-5,4.6v1.2
			h33.9l0.8-14.6H214C209.4,157.2,205.6,157,199,157z"/>
		<path class="st0" d="M282.1,154.5v-20.1c0-7.1-5.1-8.7-9.4-8.7c-3.9,0-9.6,1.8-12.6,4.5v-3.8h-13v1.2c4.9,1.3,5,1.5,5,4.6v22.3
			c0,2-0.1,2.8-1.4,3.4c-0.9,0.4-1.6,0.5-2,0.5c-3.2,0.2-3.7-1.3-3.7-4.1v-18.4c0-6.6-3.8-10.2-10.4-10.2c-8.7,0-16.5,2.5-16.5,9
			c0,2.9,1.3,4.5,4.6,4.5c3.3,0,4.7-2,4.7-4.7c0-2.6-0.9-3.3-4.3-3.9v-0.2c0,0,3.5-0.2,6-0.2c6.2,0,6.6,0.3,6.6,6.9v5.1h-8
			c-7.6,0-10.4,2.5-10.4,9.4c0,7.2,2.6,9.2,8.8,9.2c4,0,8-1.3,10.1-2.7c0.9,2,3.2,2.7,6.4,2.7c1.7,0,3.7-0.2,5.9-0.5
			c0.5-0.1,1.2-0.2,2.4-0.2h15.4v-1.2c-4.8-1.3-5-1.5-5-4.6v-23.3c2.5-0.2,5-0.4,7.4-0.4c3.5,0,3.9,0.8,3.9,4.1v19.6
			c0,3.1-0.1,3.3-5,4.6v1.2h19.3v-1.2C282.3,157.8,282.1,157.5,282.1,154.5z M235.7,155.8v0.5c-1.3,0.4-2.7,0.6-4.1,0.6
			c-3.5,0-4.7-0.8-4.7-5.3c0-6.1,0.3-6.6,8.7-6.6V155.8z"/>
		<path class="st0" d="M224.9,121.8h2.3c2.7,0,2.9-0.2,2.9-2.9v-2.3c0-2.7-0.2-2.9-2.9-2.9h-2.3c-2.7,0-2.9,0.2-2.9,2.9v2.3
			C222,121.6,222.2,121.8,224.9,121.8z"/>
		<path class="st0" d="M237.6,121.8h2.3c2.7,0,2.9-0.2,2.9-2.9v-2.3c0-2.7-0.2-2.9-2.9-2.9h-2.3c-2.7,0-2.9,0.2-2.9,2.9v2.3
			C234.7,121.6,234.9,121.8,237.6,121.8z"/>
		<path class="st0" d="M294.3,132.8c0-2.8,2.3-4,5.1-4c3.9,0,6.4,1.4,9.1,7.2h1.2l-0.5-9.6c0,0-5-0.8-8.5-0.8
			c-9,0-13.1,3.3-13.1,10.4c0,14,17.2,9.8,17.2,17.3c0,2.7-2.3,4.3-5.2,4.3c-4.2,0-7.8-1.7-10.8-8.4h-1.2l0.2,9.9
			c1.8,0.5,7.2,1.6,11.4,1.6c8.2,0,12.6-4,12.6-10.8C311.8,136.8,294.3,140.2,294.3,132.8z"/>
		<path class="st0" d="M325.5,154.5v-24.9l7.4-1.7v-1.5h-7.4v-6c0-3.9,0.9-4.1,3.9-4.1h4.6v-0.8c-2.9-2.7-6.4-3.7-9.5-3.7
			c-4.7,0-8.2,2.6-8.2,8.8v5.8v2.8v25.3c0,3.1-0.1,3.3-5,4.6v1.2h19.3v-1.2C325.7,157.8,325.5,157.5,325.5,154.5z"/>
		<path class="st0" d="M348.1,125.7c-12,0-16.8,2.3-16.8,17.9c0,15.2,4.9,17.3,16.8,17.3c12,0,15.9-1.7,15.9-17.3
			C364,128.1,360.5,125.7,348.1,125.7z M348.1,158.1c-6.2,0-6.8-0.5-6.8-14.4c0-13.7,0.3-15.1,6.8-15.1c5.6,0,5.9,1.5,5.9,15.1
			C354,157.5,353.4,158.1,348.1,158.1z"/>
		<path class="st0" d="M352.9,121.8h2.3c2.7,0,2.9-0.2,2.9-2.9v-2.3c0-2.7-0.2-2.9-2.9-2.9h-2.3c-2.7,0-2.9,0.2-2.9,2.9v2.3
			C350,121.6,350.2,121.8,352.9,121.8z"/>
		<path class="st0" d="M340.2,121.8h2.3c2.7,0,2.9-0.2,2.9-2.9v-2.3c0-2.7-0.2-2.9-2.9-2.9h-2.3c-2.7,0-2.9,0.2-2.9,2.9v2.3
			C337.3,121.6,337.5,121.8,340.2,121.8z"/>
		<path class="st0" d="M398.5,132.8c0-2.8,2.3-4,5.1-4c3.9,0,6.4,1.4,9.1,7.2h1.2l-0.5-9.6c0,0-5-0.8-8.5-0.8
			c-9,0-13.1,3.3-13.1,10.4c0,14,17.2,9.8,17.2,17.3c0,2.7-2.3,4.3-5.2,4.3c-4.2,0-7.8-1.7-10.8-8.4h-1.2l0.2,9.9
			c1.8,0.5,7.2,1.6,11.4,1.6c8.2,0,12.6-4,12.6-10.8C416,136.8,398.5,140.2,398.5,132.8z"/>
		<path class="st0" d="M462.5,154.5v-42.1h-14.3v0h0v1.2c4.9,1.3,5,1.5,5,4.6v36.3c0,1.4,0,2.2-0.5,2.8c-0.2,0.2-0.4,0.4-0.7,0.6
			l0,0c-0.1,0.1-0.2,0.1-0.3,0.1c-0.2,0.1-0.3,0.1-0.5,0.2c-0.9,0.3-1.9,0.2-2.3,0.2c-2.2-0.1-2.7-1.7-2.7-4.1v-18.4
			c0-6.6-3.8-10.2-10.4-10.2c-8.7,0-16.5,2.5-16.5,9c0,2.9,1.3,4.5,4.6,4.5c3.3,0,4.7-2,4.7-4.7c0-2.6-0.9-3.3-4.3-3.9v-0.2
			c0,0,3.5-0.2,6-0.2c6.2,0,6.6,0.3,6.6,6.9v5.1h-8c-7.6,0-10.4,2.5-10.4,9.4c0,7.2,2.6,9.2,8.8,9.2c4,0,8-1.3,10.1-2.7
			c0.9,2,3.2,2.7,6.4,2.7c1.3,0,2.7-0.1,4.3-0.3c1-0.1,2-0.4,3.5-0.4h15.9v0h0v-1.2C462.7,157.8,462.5,157.5,462.5,154.5z
			 M436.9,155.8v0.5c-1.3,0.4-2.7,0.6-4.1,0.6c-3.5,0-4.7-0.8-4.7-5.3c0-6.1,0.3-6.6,8.7-6.6V155.8z"/>
		<path class="st0" d="M522.7,121.3h2.3c2.7,0,2.9-0.2,2.9-2.9v-2.3c0-2.7-0.2-2.9-2.9-2.9h-2.3c-2.7,0-2.9,0.2-2.9,2.9v2.3
			C519.9,121.1,520.1,121.3,522.7,121.3z"/>
		<path class="st0" d="M566.7,154.5v-20.1c0-7.1-5.1-8.7-9.4-8.7c-3.9,0-9.6,1.8-12.6,4.5v-3.8h-13v1.2c4.9,1.3,5,1.5,5,4.6v22.3
			c0,2.5-0.1,3.1-2.6,3.9c-0.7,0.2-1.8,0.2-2.4,0.1c-2.7-0.8-2.8-1.5-2.8-4v-28.1h-14.3v1.2c4.9,1.3,5,1.5,5,4.6v22.3
			c0,3.1-0.1,3.3-5,4.6v1.2h17.1h2.2h17.1v-1.2c-4.8-1.3-5-1.5-5-4.6v-23.3c2.5-0.2,5-0.4,7.4-0.4c3.5,0,3.9,0.8,3.9,4.1v19.6
			c0,3.1-0.1,3.3-5,4.6v1.2h18.3v-1.2C566.9,158,566.7,157.5,566.7,154.5z"/>
		<path class="st0" d="M591.8,152.4h-11.5c-2.3,0-3.1-0.9-3.1-2.2c0-1,0.2-2.2,0.5-3.3c2.1,0.5,4.4,0.7,7.9,0.7
			c11,0,14.8-1.9,14.8-10.4c0-3.9-1-6.6-3-8.4l6.6-1.3v-1.2c-5.9-0.3-13.6-0.7-18.4-0.7c-7.8,0-14.9,1.7-14.9,11.6
			c0,4.5,1.2,7.3,4.5,8.8c-3.3,3.5-4.1,5.9-3.9,8.8c0.1,1.9,1.1,3.9,3.4,5.3c-2,2.7-3.4,6.2-3.4,8.4c0,3.8,2,5.3,9.2,5.3h10.4
			c7.9,0,10.8-1.9,10.8-11.6C601.7,154.6,599.5,152.4,591.8,152.4z M585.5,128.8c3.8,0,4.9,0.8,4.9,8.3c0,7-0.5,7.5-4.9,7.5
			c-3.9,0-4.9-0.5-4.9-7.5C580.7,129.1,581.8,128.8,585.5,128.8z M588.6,170.7h-5.6c-5.1,0-6.6-0.4-6.6-4.2c0-1.9,0.1-3.8,0.1-5.6
			c0.7,0.1,1.5,0.2,2.4,0.2h9.4c5.4,0,6.6,0.6,6.6,5C595,170.1,594.1,170.7,588.6,170.7z"/>
		<path class="st0" d="M438.8,121.8h2.3c2.7,0,2.9-0.2,2.9-2.9v-2.3c0-2.7-0.2-2.9-2.9-2.9h-2.3c-2.7,0-2.9,0.2-2.9,2.9v2.3
			C435.9,121.6,436.1,121.8,438.8,121.8z"/>
		<path class="st0" d="M426.1,121.8h2.3c2.7,0,2.9-0.2,2.9-2.9v-2.3c0-2.7-0.2-2.9-2.9-2.9h-2.3c-2.7,0-2.9,0.2-2.9,2.9v2.3
			C423.2,121.6,423.4,121.8,426.1,121.8z"/>
		<path class="st0" d="M647.2,154.5v-28.1h-14.3v1.2c4.9,1.3,5,1.5,5,4.6v22.3c0,2.2-0.1,3-1.9,3.6c-0.7,0.2-2.1,0.5-3.5,0
			c-1.4-0.7-1.7-1.8-1.7-3.8v-18.4c0-6.6-3.8-10.2-10.4-10.2c-8.7,0-16.5,2.5-16.5,9c0,2.9,1.3,4.5,4.6,4.5c3.3,0,4.7-2,4.7-4.7
			c0-2.6-0.9-3.3-4.3-3.9v-0.2c0,0,3.5-0.2,6-0.2c6.2,0,6.6,0.3,6.6,6.9v5.1h-8c-7.6,0-10.4,2.5-10.4,9.4c0,7.2,2.6,9.2,8.8,9.2
			c4,0,8-1.3,10.1-2.7c0.9,2,3.2,2.7,6.4,2.7c2.1,0,5.6-0.7,7.9-0.7l0,0h15.9v-1.2C647.4,157.8,647.2,157.5,647.2,154.5z
			 M621.5,155.8v0.5c-1.3,0.4-2.7,0.6-4.1,0.6c-3.5,0-4.7-0.8-4.7-5.3c0-6.1,0.3-6.6,8.7-6.6V155.8z"/>
		<path class="st0" d="M655.9,126.4h-2.7c-3.1,0-3.4,0.2-3.4,3.4v2.7c0,3.1,0.2,3.4,3.4,3.4h2.7c3.1,0,3.4-0.2,3.4-3.4v-2.7
			C659.3,126.6,659.1,126.4,655.9,126.4z"/>
	</g>
</g>
<g>
	<g>
		<polygon class="st0" points="91.6,54.2 91.6,83.9 130.5,83.9 130.5,160.9 160.2,160.9 160.2,54.2 		"/>
		<polygon class="st0" points="53.4,54.2 53.4,160.9 122,160.9 122,131.2 83.1,131.2 83.1,54.2 		"/>
	</g>
	<g>
		<rect x="91.6" y="92.3" class="st1" width="30.4" height="30.4"/>
	</g>
</g>
<g>
</g>
<g>
</g>
<g>
</g>
<g>
</g>
<g>
</g>
<g>
</g>
</svg>
